<?xml version="1.0" standalone="no"?>
<!DOCTYPE svg PUBLIC "-//W3C//DTD SVG 20010904//EN"
        "http://www.w3.org/TR/2001/REC-SVG-20010904/DTD/svg10.dtd">
<svg version="1.0" xmlns="http://www.w3.org/2000/svg"
     width="260.000000pt" height="260.000000pt" viewBox="0 0 260.000000 260.000000"
     preserveAspectRatio="xMidYMid meet">
    <metadata>
        Created by potrace 1.14, written by Peter Selinger 2001-2017
    </metadata>
    <g transform="translate(0.000000,260.000000) scale(0.100000,-0.100000)"
       fill="#000000" stroke="none">
        <path d="M2186 2325 c-3 -9 -6 -33 -6 -54 0 -58 -20 -152 -41 -193 -30 -58
-97 -85 -261 -103 -32 -4 -58 -10 -58 -14 0 -5 44 -11 98 -14 176 -10 208 -30
207 -128 l0 -64 -58 -3 c-45 -2 -57 -6 -58 -20 -1 -27 -1 -114 0 -149 1 -32 1
-32 58 -35 l57 -3 1 -295 c1 -252 4 -303 19 -347 34 -103 112 -144 261 -138
50 1 108 10 130 18 38 13 40 16 37 53 -2 21 -5 48 -7 59 -2 11 -4 37 -4 59 -1
37 -2 38 -28 32 -75 -18 -99 -17 -124 2 l-24 20 -2 271 -1 271 86 0 87 0 0
100 1 100 -87 0 -87 0 0 93 c1 56 5 95 12 99 6 4 43 8 83 8 86 0 105 15 31 24
-138 17 -128 12 -126 62 0 24 -1 46 -3 48 -3 3 -26 -9 -52 -25 -26 -16 -53
-27 -59 -23 -23 15 -48 97 -59 195 -6 57 -12 105 -14 107 -1 2 -5 -4 -9 -13z"/>
        <path d="M1023 2248 c-6 -7 -13 -49 -17 -92 -13 -147 -51 -272 -143 -474 -56
-122 -57 -124 -72 -101 -28 43 -111 117 -157 139 -139 68 -320 65 -441 -6 -61
-35 -125 -103 -161 -172 l-32 -60 0 -219 0 -220 30 -59 c73 -146 211 -222 407
-222 85 0 170 18 219 47 l30 18 28 -49 c59 -105 190 -202 325 -242 70 -21 228
-21 305 -1 72 19 156 55 156 66 0 5 6 9 14 9 19 0 106 80 140 129 l29 41 133
0 c74 0 134 3 134 6 0 3 -39 61 -86 129 l-87 123 -2 139 c-1 117 -5 150 -26
213 l-25 75 98 137 c54 75 98 139 98 142 0 3 -64 6 -142 6 -127 0 -144 -2
-163 -20 l-21 -20 -65 88 c-136 180 -329 374 -439 441 -40 24 -54 26 -67 9z
m-526 -693 c67 -28 101 -74 113 -152 l7 -43 -136 1 c-146 0 -154 14 -15 26 40
3 71 9 69 13 -2 4 -33 10 -69 13 -92 9 -133 28 -152 73 -17 41 -16 43 41 69
40 19 97 19 142 0z m-227 -380 c0 -14 5 -25 10 -25 6 0 10 11 10 25 l0 25 181
0 c167 0 180 -1 176 -17 -3 -10 -8 -35 -12 -55 -3 -21 -11 -38 -18 -38 -7 0
-23 -20 -36 -45 -69 -130 -273 -102 -330 47 -5 14 -12 44 -16 67 -5 37 -4 41
15 41 15 0 20 -6 20 -25z"/>
        <path d="M2093 696 c-6 -40 -17 -86 -24 -102 -19 -39 -68 -62 -151 -70 -37 -4
-68 -10 -68 -14 0 -4 34 -10 75 -13 42 -4 88 -13 104 -22 35 -18 57 -68 66
-157 4 -37 11 -66 15 -63 4 2 10 37 13 77 9 129 34 154 162 165 41 3 75 9 75
13 0 4 -30 10 -66 13 -82 8 -135 33 -153 72 -8 16 -16 62 -19 102 -3 40 -8 73
-12 73 -4 0 -12 -33 -17 -74z"/>
    </g>
</svg>
